PathFileType	4	(X/Y/Z)	path1_10_0-575.trc
DataRate	CameraRate	NumFrames	NumMarkers	Units	OrigDataRate	OrigDataStartFrame	OrigNumFrames
30	30	8	22	m	30	143	575
Frame#	Time	Hip			RHip			RKnee			RAnkle			RBigToe			RSmallToe			RHeel			LHip			LKnee			LAnkle			LBigToe			LSmallToe			LHeel			Neck			Head			Nose			RShoulder			RElbow			RWrist			LShoulder			LElbow			LWrist		
		X1	Y1	Z1	X2	Y2	Z2	X3	Y3	Z3	X4	Y4	Z4	X5	Y5	Z5	X6	Y6	Z6	X7	Y7	Z7	X8	Y8	Z8	X9	Y9	Z9	X10	Y10	Z10	X11	Y11	Z11	X12	Y12	Z12	X13	Y13	Z13	X14	Y14	Z14	X15	Y15	Z15	X16	Y16	Z16	X17	Y17	Z17	X18	Y18	Z18	X19	Y19	Z19	X20	Y20	Z20	X21	Y21	Z21	X22	Y22	Z22
144	4.8	2.5398467518316146	0.8342899075436871	0.7921111417341421	2.5384415660944644	0.7983794631835022	0.7113412854888946	2.5054984942233753	0.46960619916591606	0.6992792570261019	2.5552906137095968	0.10915211991287935	0.7079145120011052	2.3766609082486108	0.02799906916499246	0.7054614576831881	2.4157690358919037	0.02074677618033553	0.64771231229547	2.623332148440235	0.025968782903542768	0.73065804779456	2.5451842686949253	0.7939841685457897	0.8732321001309358	2.551852991123247	0.43219413759653286	0.8996968211679038	2.5652578548297806	0.10461237292350259	0.8697269242930669	2.408724213713286	0.012229892930255861	0.8978419821128776	2.4225615997112553	0.033081345756448194	0.9493501331513107	2.6150086284518106	0.03383082039635239	0.8695035006918918	2.5261392792543345	1.4712493123694745	0.8029378925407222	2.502951523361972	1.7157460845646928	0.7501380006513331	2.3717721118016786	1.5909980302926112	0.7942346258440127	2.560184412133971	1.3664767138809326	0.6326549243918259	2.569563261803557	1.08022184344159	0.5905650771685155	2.56228415291002	0.8565542844046679	0.5975298632424443	2.571955922492875	1.3533083170993134	0.9362372506323915	2.614846778031338	1.0731427575168104	0.9730526173358143	2.5931615851805683	0.8223687119590748	0.9513210872368034
145	4.833333333333333	2.539566191760712	0.8341369815077656	0.7918381509856769	2.538127459996585	0.7982711892882256	0.7110621992147081	2.505507501246884	0.46937605108722086	0.6989383360490895	2.5555888682151675	0.1087972547376713	0.7081699010372488	2.375405900372428	0.0273997155604837	0.7047443207881271	2.4167294111948157	0.02048694018468203	0.6480887199478654	2.6237382358000088	0.02590430825558175	0.7317935373992721	2.5449208452339795	0.7940778101670767	0.872796126256235	2.551838524836863	0.43229479653665065	0.8991058115056543	2.5647578668299538	0.10491729926601306	0.8698078925479743	2.408450118695647	0.013285625780535165	0.8985576581077093	2.422524010746524	0.03330462348078333	0.9495479169422538	2.6141767924727817	0.034197644809221196	0.8693571321577495	2.5261853881701395	1.4712351387801803	0.802327530790155	2.502288406547194	1.7149636607792615	0.7529926767266443	2.366724713089336	1.5870667508218483	0.7969961250197443	2.5604704621716268	1.3665170847098207	0.6328368489074778	2.569607597062748	1.0802182599349506	0.5899361815950452	2.562281982251284	0.8563433220174018	0.5973914171129254	2.571752583647988	1.3531888958775318	0.9368644893832683	2.615066320525536	1.072795974195056	0.9728678647202347	2.5925161993761496	0.8221079139211099	0.9512644295417099
146	4.866666666666666	2.5397478482005105	0.8340195299649147	0.791579884465323	2.538437925566264	0.7982448574203928	0.7111232595442978	2.5056417951564884	0.46929263303432456	0.6986324404149116	2.5558762083337387	0.10836951023186711	0.7083519968085263	2.3744316472511917	0.026860685932442074	0.7041452098797553	2.4178235005096425	0.02024677876248992	0.6486129880334176	2.6228331188126384	0.026586153216821878	0.7315244641146238	2.54483414775	0.794389307556874	0.8728031430463756	2.5518159665448934	0.4325878268774099	0.8990251642171021	2.564165929058851	0.10529105414653056	0.8698926104573824	2.407793187154808	0.014082886704952136	0.8983211214896848	2.422940062925764	0.03344742876000632	0.9497856485429523	2.613027040870604	0.03472697029848904	0.8691067903831204	2.526279462618575	1.4711657729155252	0.8017917140003014	2.5002650772614197	1.7138421142746325	0.7570574673226957	2.3650880501410825	1.5855323434693167	0.7983705605166719	2.560607051481493	1.3662974459419956	0.6324204837851418	2.5699167124798037	1.0800752690424065	0.589848305613974	2.5623923495577046	0.8558946127069544	0.5971183580988028	2.5713928511759048	1.3531000841402938	0.9375292848628379	2.615226502157496	1.0720541911304033	0.9724346306656786	2.591379934696035	0.8214854735244915	0.9510787640140713
147	4.9	2.5403417072845715	0.833941351386143	0.7914155638868418	2.53921185769093	0.7984563063527638	0.711435591390781	2.5058707614673508	0.4693713585956717	0.6984277007135484	2.5560452516877525	0.10791740162835357	0.7084277877651517	2.374236936209837	0.026570051607649137	0.7040022270497014	2.418769057679564	0.020077970997462027	0.6491651787438629	2.6209650850738067	0.02778568496519155	0.7300793569269135	2.544923606023811	0.7949171324442847	0.873117625776351	2.5517454376652737	0.4331305619708038	0.8992287125829818	2.56351099823513	0.10557898603523931	0.8699370474188164	2.4066220503510882	0.014680092903371904	0.8974682062627825	2.423562075866476	0.03357057507161271	0.9500089912094373	2.611629169275358	0.0353363196345903	0.8687225509403517	2.52640782878228	1.4710184225296703	0.8014256017432004	2.4966557681496298	1.7123271023066573	0.7619854972182142	2.36616739059011	1.5859502088574458	0.7984374416749402	2.5604649336394556	1.3658061720397872	0.6314463134777428	2.5701296608200956	1.0798845315602732	0.5899209403812857	2.562562193666495	0.8553038953694582	0.5967863899140471	2.5709369713227592	1.352999232876102	0.9380882047292075	2.615260492506158	1.0708020962420055	0.971593204906989	2.590266803009339	0.8205937506552146	0.9507466399375537
148	4.933333333333334	2.541087978642091	0.8338988092324666	0.7913201874231761	2.540016571904242	0.7989516974134225	0.711752952882338	2.506105636588564	0.4695799243017005	0.6983599924882365	2.5560352298702957	0.10754141209415838	0.70840266018006	2.374968983891205	0.026563054314499752	0.7044065092995806	2.419328147501989	0.02005820679144016	0.6495432522617596	2.618917979154373	0.029053169030732236	0.7281771616889485	2.5450827761061126	0.7955765629682018	0.8734410784515589	2.5515985374933	0.4338442713149006	0.8993848721391154	2.562904389423509	0.10569229069738022	0.8699181731109924	2.405095683830604	0.015191192343135923	0.8966451324669299	2.424064482486556	0.03373440128262765	0.950172803877708	2.6102122318786583	0.03590671269901019	0.8681879926012783	2.5265533124787356	1.4708158929430484	0.801228318342647	2.492142222815944	1.710607445357103	0.7669274192355616	2.368875971257744	1.5875672513346544	0.7975623244577976	2.5599536398843448	1.3649278950275945	0.6298411516483234	2.570079581151163	1.0797083446036337	0.5899464460832331	2.562717008930524	0.8547320507248901	0.5964909504120198	2.570497543030764	1.3528340872621132	0.938434908807087	2.6151765146732107	1.0690207269343426	0.9702459231879005	2.5896507069026335	0.8196298644826846	0.9503323528683169
149	4.966666666666667	2.541691010028088	0.8338966568371704	0.7912144816857326	2.540465691105647	0.7996363589024621	0.711827051138877	2.5062836112030937	0.46983697259602675	0.698423709281683	2.5558751182886206	0.10731182090955285	0.7083232088135656	2.376360669933779	0.026740451583517077	0.7052271631340613	2.419453315684887	0.020184633907919573	0.6496582258104502	2.6172841190168885	0.029998097151281863	0.7264662521801555	2.5451881182835505	0.7962220234447468	0.8735054042454001	2.5513970983545855	0.43454047766147263	0.899337456383457	2.5624654569615943	0.10561899740570374	0.8698374864894473	2.4037994321371583	0.015430175695927846	0.8962074429353091	2.4243070721956372	0.03389084380699247	0.9502284764498758	2.609063706936885	0.036298042781959264	0.8675547066464271	2.5267235139507638	1.4706062641859805	0.8011561403146098	2.4882808903760987	1.7092363931494634	0.7706530451546556	2.372702604854704	1.589977101640971	0.7961392710472439	2.559140217535794	1.3636516114514408	0.6276933584786573	2.569801402421577	1.079575260200468	0.5898504639395056	2.5628063177412517	0.8542947265383573	0.5963131004035584	2.570188970492628	1.3525972786523097	0.9385160873408334	2.6150260097576217	1.066963487643701	0.968582625674531	2.589657911378703	0.8187817758555351	0.9499770202198582
150	5.0	2.542000156554278	0.8339324644310313	0.791040960183409	2.5404411382671097	0.800332105759999	0.711537464001667	2.5064194265701607	0.47004137606741503	0.6985805817528914	2.5556552309188736	0.10721294546855346	0.7082475539678845	2.377985897260752	0.026964581476173068	0.7062447880292688	2.4192992631445573	0.0203342212937868	0.6496775279325467	2.616229462843097	0.03045541690985781	0.7252370602255809	2.545170545809845	0.7966955299258704	0.8732041430587889	2.551205825827312	0.43500274356542157	0.8991717148444195	2.5622600336171875	0.10537385031592386	0.8697056098272162	2.4033722070908192	0.01509793323484481	0.896075753247919	2.424337198106941	0.03394097779763945	0.9501308783852583	2.6084030767959328	0.03637240800604432	0.8669483619981556	2.526941883077475	1.470428127035131	0.8011641829201942	2.4862506175473884	1.7086764213330694	0.7723590113416873	2.3768303096072483	1.5925705681346616	0.794698562984606	2.5582798988942255	1.3623160107301597	0.6256200281213385	2.5694598322116766	1.0794763169293216	0.5896803206011014	2.5628268771770557	0.8540306522516946	0.5962816838478098	2.5700490876660504	1.3523157960822114	0.9383424801052183	2.61484355900728	1.065201377033179	0.9671325512990945	2.590139217083544	0.8181590451433908	0.9498386279188582
151	5.033333333333333	2.542062758857998	0.8339787064721539	0.7907994213087316	2.5401188461813007	0.8008202642190737	0.7109883783975476	2.5065851518511844	0.47013374984684525	0.6987810994115585	2.555482673768541	0.10716716360228765	0.7081952995660118	2.37943003154121	0.02711203608279531	0.7072175569987014	2.419124770987927	0.02033488372039828	0.6498602223811464	2.615689689341951	0.030479905214123526	0.7244893421029589	2.5450385457649283	0.7968718386001776	0.8726431394489153	2.5510935841497577	0.43507892729282854	0.8991036088034376	2.5622660541460416	0.10500257573473404	0.8695479270748125	2.4038419404831197	0.014315186035316105	0.896028726563288	2.424272461495034	0.033857365367732116	0.9498872299046143	2.6083061061175843	0.036064418181305805	0.866516235179709	2.5271905095668314	1.4703190732530242	0.8011966500540467	2.486156962626812	1.7089915841746524	0.7720736866520902	2.3800326116955928	1.594516014341864	0.7937604414041456	2.5577515171037977	1.3615951692661177	0.624743326347018	2.5692908939072643	1.0793669052562678	0.5896599978685754	2.562818616321638	0.8539280789392071	0.5963464194941988	2.5700113221164584	1.352022639022479	0.9380132986268669	2.614632527453702	1.0641718011181702	0.9663500680033782	2.590812668858699	0.8177883623506832	0.9499942178150336
